<svg xmlns="http://www.w3.org/2000/svg" viewBox="0 0 803.75 256.8"><defs><style>.cls-1{fill:#90b4fe;}.cls-2{fill:none;}.cls-3{font-size:102px;fill:#63b132;font-family:HelveticaNeue, Helvetica Neue;letter-spacing:-0.01em;}.cls-4{letter-spacing:-0.03em;}.cls-5,.cls-6{letter-spacing:-0.01em;}.cls-6{fill:#5881d8;}.cls-7{fill:#91dc47;}</style></defs><title>ClojureNorthLogo</title><g id="Layer_3" data-name="Layer 3"><path class="cls-1" d="M63.52,220.36A99.91,99.91,0,1,1,200.23,96.21,99.91,99.91,0,0,1,63.52,220.36ZM147.86,41.19a98.07,98.07,0,1,0,47.19,130.66A98.23,98.23,0,0,0,147.86,41.19Z"/><rect class="cls-1" x="144.84" y="34.25" width="11.84" height="1.54" transform="translate(54.86 156.51) rotate(-64.79)"/><rect class="cls-1" x="55.46" y="224.14" width="11.84" height="1.54" transform="translate(-168.25 184.65) rotate(-64.79)"/><rect class="cls-1" x="129.36" y="30.34" width="7.19" height="1.2" transform="translate(68.27 151.14) rotate(-74.82)"/><rect class="cls-1" x="75.6" y="228.39" width="7.19" height="1.2" transform="translate(-162.55 245.43) rotate(-74.81)"/><polygon class="cls-1" points="114.39 31.27 115.04 24.11 116.23 24.22 115.58 31.38 114.39 31.27"/><polygon class="cls-1" points="95.91 235.71 96.56 228.55 97.75 228.66 97.1 235.81 95.91 235.71"/><polygon class="cls-1" points="97.1 31.3 96.49 24.13 97.68 24.03 98.29 31.2 97.1 31.3"/><polygon class="cls-1" points="114.46 235.89 113.85 228.73 115.04 228.63 115.65 235.79 114.46 235.89"/><polygon class="cls-1" points="80.08 34.32 78.24 27.37 79.39 27.06 81.24 34.02 80.08 34.32"/><polygon class="cls-1" points="132.75 232.86 130.91 225.91 132.06 225.61 133.91 232.56 132.75 232.86"/><polygon class="cls-1" points="63.85 40.25 60.83 33.72 61.91 33.22 64.94 39.75 63.85 40.25"/><polygon class="cls-1" points="150.23 226.71 147.21 220.18 148.29 219.68 151.32 226.21 150.23 226.71"/><polygon class="cls-1" points="48.9 48.91 44.79 43 45.77 42.32 49.89 48.23 48.9 48.91"/><polygon class="cls-1" points="166.37 217.61 162.26 211.7 163.24 211.02 167.35 216.93 166.37 217.61"/><polygon class="cls-1" points="35.69 60.02 30.62 54.92 31.46 54.08 36.54 59.18 35.69 60.02"/><polygon class="cls-1" points="180.68 205.85 175.6 200.74 176.45 199.9 181.53 205.01 180.68 205.85"/><rect class="cls-1" x="21.43" y="67.1" width="1.19" height="7.2" transform="translate(-48.46 47.97) rotate(-54.82)"/><rect class="cls-1" x="189.53" y="185.62" width="1.19" height="7.2" transform="translate(-74.08 235.58) rotate(-54.82)"/><rect class="cls-1" x="10.14" y="79.23" width="1.53" height="11.87" transform="translate(-70.79 58.76) rotate(-64.79)"/><rect class="cls-1" x="200.47" y="168.83" width="1.53" height="11.87" transform="translate(-42.59 282.4) rotate(-64.79)"/><rect class="cls-1" x="6.25" y="99.34" width="1.19" height="7.2" transform="matrix(0.26, -0.97, 0.97, 0.26, -94.3, 82.58)"/><rect class="cls-1" x="204.7" y="153.38" width="1.19" height="7.2" transform="translate(0.01 313.98) rotate(-74.81)"/><polygon class="cls-1" points="0.05 120.82 0.15 119.63 7.33 120.29 7.22 121.48 0.05 120.82"/><polygon class="cls-1" points="204.82 139.64 204.93 138.45 212.1 139.11 211.99 140.3 204.82 139.64"/><polygon class="cls-1" points="0.1 139.34 0 138.15 7.17 137.55 7.28 138.74 0.1 139.34"/><polygon class="cls-1" points="204.97 122.37 204.87 121.18 212.04 120.59 212.15 121.78 204.97 122.37"/><polygon class="cls-1" points="3.38 157.57 3.07 156.42 10.03 154.59 10.34 155.74 3.38 157.57"/><polygon class="cls-1" points="202.12 105.34 201.81 104.18 208.77 102.35 209.08 103.51 202.12 105.34"/><polygon class="cls-1" points="9.77 174.97 9.27 173.88 15.8 170.87 16.3 171.96 9.77 174.97"/><polygon class="cls-1" points="196.35 89.05 195.84 87.97 202.38 84.96 202.88 86.04 196.35 89.05"/><polygon class="cls-1" points="19.09 191 18.41 190.01 24.32 185.92 25 186.9 19.09 191"/><polygon class="cls-1" points="187.83 74.01 187.15 73.03 193.06 68.93 193.74 69.91 187.83 74.01"/><polygon class="cls-1" points="31.05 205.17 30.21 204.32 35.31 199.26 36.16 200.11 31.05 205.17"/><polygon class="cls-1" points="176.83 60.66 175.99 59.81 181.09 54.76 181.94 55.6 176.83 60.66"/><rect class="cls-1" x="43.28" y="213.18" width="7.19" height="1.2" transform="translate(-154.86 128.92) rotate(-54.82)"/><rect class="cls-1" x="161.67" y="45.55" width="7.19" height="1.2" transform="translate(32.33 154.64) rotate(-54.82)"/><rect class="cls-1" x="144.25" y="36.5" width="3.55" height="0.51" transform="translate(54.7 156.48) rotate(-66.79)"/><rect class="cls-1" x="64.34" y="222.92" width="3.55" height="0.51" transform="translate(-165.05 196.01) rotate(-66.8)"/><rect class="cls-1" x="140.97" y="35.16" width="3.55" height="0.51" transform="translate(58.1 155.68) rotate(-68.8)"/><rect class="cls-1" x="67.62" y="224.26" width="3.55" height="0.51" transform="translate(-165.02 208.02) rotate(-68.8)"/><rect class="cls-1" x="137.64" y="33.93" width="3.55" height="0.51" transform="translate(61.28 154.6) rotate(-70.8)"/><rect class="cls-1" x="70.95" y="225.48" width="3.55" height="0.51" transform="translate(-164.37 220.2) rotate(-70.8)"/><rect class="cls-1" x="134.27" y="32.82" width="3.55" height="0.51" transform="translate(64.22 153.26) rotate(-72.8)"/><rect class="cls-1" x="74.32" y="226.59" width="3.55" height="0.51" transform="translate(-163.11 232.51) rotate(-72.81)"/><polygon class="cls-1" points="128.54 32.88 129.35 29.43 129.85 29.54 129.04 33 128.54 32.88"/><rect class="cls-1" x="81.17" y="228.46" width="3.55" height="0.51" transform="translate(-158.66 257.33) rotate(-76.82)"/><polygon class="cls-1" points="125.14 32.15 125.83 28.67 126.33 28.77 125.64 32.25 125.14 32.15"/><polygon class="cls-1" points="85.82 231.16 86.5 227.67 87.01 227.77 86.32 231.26 85.82 231.16"/><polygon class="cls-1" points="121.7 31.54 122.27 28.04 122.78 28.12 122.21 31.63 121.7 31.54"/><polygon class="cls-1" points="89.37 231.81 89.93 228.3 90.44 228.38 89.87 231.89 89.37 231.81"/><polygon class="cls-1" points="118.25 31.05 118.7 27.53 119.21 27.59 118.76 31.12 118.25 31.05"/><polygon class="cls-1" points="92.94 232.34 93.38 228.81 93.89 228.87 93.45 232.4 92.94 232.34"/><polygon class="cls-1" points="111.31 30.43 111.51 26.88 112.02 26.91 111.83 30.46 111.31 30.43"/><polygon class="cls-1" points="100.12 233.01 100.32 229.47 100.83 229.5 100.64 233.04 100.12 233.01"/><polygon class="cls-1" points="107.83 30.3 107.9 26.75 108.42 26.76 108.34 30.31 107.83 30.3"/><polygon class="cls-1" points="103.73 233.16 103.8 229.61 104.31 229.62 104.24 233.18 103.73 233.16"/><polygon class="cls-1" points="104.35 30.3 104.29 26.74 104.81 26.74 104.86 30.29 104.35 30.3"/><polygon class="cls-1" points="107.34 233.19 107.29 229.64 107.8 229.63 107.85 233.18 107.34 233.19"/><polygon class="cls-1" points="100.86 30.41 100.69 26.86 101.2 26.84 101.38 30.39 100.86 30.41"/><polygon class="cls-1" points="110.94 233.09 110.77 229.54 111.28 229.51 111.46 233.06 110.94 233.09"/><polygon class="cls-1" points="93.92 31 93.5 27.48 94.01 27.41 94.43 30.94 93.92 31"/><polygon class="cls-1" points="118.14 232.51 117.71 228.98 118.22 228.92 118.65 232.45 118.14 232.51"/><polygon class="cls-1" points="90.47 31.48 89.93 27.97 90.43 27.89 90.98 31.4 90.47 31.48"/><polygon class="cls-1" points="121.71 232.03 121.17 228.52 121.67 228.44 122.22 231.96 121.71 232.03"/><polygon class="cls-1" points="87.04 32.08 86.37 28.59 86.87 28.49 87.54 31.98 87.04 32.08"/><polygon class="cls-1" points="125.27 231.43 124.6 227.94 125.1 227.85 125.77 231.34 125.27 231.43"/><polygon class="cls-1" points="83.63 32.8 82.84 29.33 83.34 29.22 84.13 32.68 83.63 32.8"/><polygon class="cls-1" points="128.8 230.71 128.01 227.24 128.51 227.13 129.3 230.6 128.8 230.71"/><polygon class="cls-1" points="76.9 34.58 75.87 31.18 76.36 31.03 77.39 34.44 76.9 34.58"/><polygon class="cls-1" points="135.78 228.89 134.75 225.49 135.24 225.34 136.28 228.75 135.78 228.89"/><polygon class="cls-1" points="73.59 35.65 72.44 32.29 72.92 32.12 74.07 35.49 73.59 35.65"/><polygon class="cls-1" points="139.22 227.81 138.07 224.44 138.56 224.28 139.71 227.64 139.22 227.81"/><polygon class="cls-1" points="70.31 36.84 69.05 33.51 69.53 33.33 70.79 36.65 70.31 36.84"/><polygon class="cls-1" points="142.62 226.6 141.35 223.27 141.83 223.09 143.1 226.41 142.62 226.6"/><polygon class="cls-1" points="67.08 38.13 65.7 34.85 66.17 34.66 67.55 37.93 67.08 38.13"/><polygon class="cls-1" points="145.97 225.27 144.59 221.99 145.06 221.79 146.44 225.07 145.97 225.27"/><polygon class="cls-1" points="60.77 41.06 59.16 37.89 59.62 37.66 61.22 40.83 60.77 41.06"/><polygon class="cls-1" points="152.53 222.27 150.92 219.1 151.38 218.87 152.99 222.04 152.53 222.27"/><polygon class="cls-1" points="57.69 42.69 55.97 39.57 56.42 39.33 58.14 42.44 57.69 42.69"/><polygon class="cls-1" points="155.72 220.6 154.01 217.49 154.46 217.24 156.17 220.35 155.72 220.6"/><polygon class="cls-1" points="54.67 44.42 52.85 41.37 53.29 41.11 55.11 44.16 54.67 44.42"/><polygon class="cls-1" points="158.86 218.82 157.03 215.77 157.47 215.51 159.3 218.56 158.86 218.82"/><polygon class="cls-1" points="51.72 46.26 49.79 43.27 50.22 42.99 52.15 45.98 51.72 46.26"/><polygon class="cls-1" points="161.93 216.93 160 213.94 160.43 213.67 162.36 216.66 161.93 216.93"/><polygon class="cls-1" points="46.01 50.24 43.88 47.39 44.28 47.09 46.42 49.93 46.01 50.24"/><polygon class="cls-1" points="167.86 212.84 165.73 210 166.14 209.69 168.27 212.54 167.86 212.84"/><polygon class="cls-1" points="43.26 52.37 41.03 49.6 41.43 49.28 43.66 52.05 43.26 52.37"/><polygon class="cls-1" points="170.72 210.64 168.49 207.87 168.88 207.55 171.12 210.32 170.72 210.64"/><polygon class="cls-1" points="40.59 54.6 38.27 51.91 38.65 51.58 40.98 54.27 40.59 54.6"/><polygon class="cls-1" points="173.49 208.35 171.17 205.66 171.55 205.32 173.88 208.01 173.49 208.35"/><polygon class="cls-1" points="38 56.93 35.58 54.32 35.96 53.97 38.38 56.58 38 56.93"/><polygon class="cls-1" points="176.19 205.96 173.77 203.34 174.14 203 176.56 205.61 176.19 205.96"/><polygon class="cls-1" points="33.07 61.84 30.48 59.4 30.83 59.03 33.42 61.47 33.07 61.84"/><polygon class="cls-1" points="181.32 200.9 178.72 198.46 179.07 198.09 181.67 200.52 181.32 200.9"/><polygon class="cls-1" points="30.74 64.42 28.06 62.08 28.4 61.69 31.08 64.03 30.74 64.42"/><rect class="cls-1" x="182.32" y="195.09" width="0.51" height="3.56" transform="translate(-85.81 204.65) rotate(-48.82)"/><rect class="cls-1" x="27.03" y="63.98" width="0.51" height="3.56" transform="translate(-40.93 45.36) rotate(-50.82)"/><polygon class="cls-1" points="186.08 195.49 183.32 193.24 183.64 192.85 186.4 195.09 186.08 195.49"/><rect class="cls-1" x="24.84" y="66.76" width="0.51" height="3.56" transform="translate(-44.67 47.09) rotate(-52.8)"/><polygon class="cls-1" points="188.31 192.67 185.48 190.51 185.79 190.11 188.63 192.26 188.31 192.67"/><rect class="cls-1" x="20.75" y="72.54" width="0.51" height="3.56" transform="translate(-52.69 51.22) rotate(-56.81)"/><rect class="cls-1" x="190.88" y="183.83" width="0.51" height="3.56" transform="translate(-68.82 243.94) rotate(-56.81)"/><rect class="cls-1" x="18.87" y="75.54" width="0.51" height="3.56" transform="matrix(0.52, -0.86, 0.86, 0.52, -56.91, 53.61)"/><rect class="cls-1" x="192.77" y="180.83" width="0.51" height="3.56" transform="translate(-63.18 253.08) rotate(-58.79)"/><rect class="cls-1" x="17.08" y="78.6" width="0.51" height="3.56" transform="translate(-61.28 56.29) rotate(-60.8)"/><rect class="cls-1" x="194.55" y="177.77" width="0.51" height="3.56" transform="translate(-56.96 262.04) rotate(-60.81)"/><rect class="cls-1" x="15.41" y="81.71" width="0.51" height="3.56" transform="translate(-65.75 59.24) rotate(-62.78)"/><rect class="cls-1" x="196.22" y="174.65" width="0.51" height="3.56" transform="translate(-50.26 270.52) rotate(-62.8)"/><rect class="cls-1" x="12.4" y="88.12" width="0.51" height="3.56" transform="translate(-74.96 66.1) rotate(-66.79)"/><rect class="cls-1" x="199.24" y="168.25" width="0.51" height="3.56" transform="translate(-35.39 286.37) rotate(-66.79)"/><rect class="cls-1" x="11.06" y="91.4" width="0.51" height="3.56" transform="translate(-79.64 70.01) rotate(-68.79)"/><rect class="cls-1" x="200.58" y="164.97" width="0.51" height="3.56" transform="translate(-27.28 293.65) rotate(-68.79)"/><rect class="cls-1" x="9.84" y="94.72" width="0.51" height="3.56" transform="translate(-84.36 74.29) rotate(-70.8)"/><rect class="cls-1" x="201.8" y="161.65" width="0.51" height="3.56" transform="translate(-18.67 300.61) rotate(-70.83)"/><rect class="cls-1" x="8.73" y="98.08" width="0.51" height="3.56" transform="translate(-89.07 78.94) rotate(-72.81)"/><rect class="cls-1" x="202.9" y="158.29" width="0.51" height="3.56" transform="translate(-9.8 306.85) rotate(-72.81)"/><polygon class="cls-1" points="5.34 106.53 5.46 106.03 8.92 106.85 8.81 107.35 5.34 106.53"/><polygon class="cls-1" points="203.22 153.08 203.34 152.58 206.8 153.39 206.69 153.89 203.22 153.08"/><rect class="cls-1" x="6.13" y="108.37" width="0.51" height="3.56" transform="translate(-102.91 95.06) rotate(-78.82)"/><polygon class="cls-1" points="203.97 149.68 204.06 149.18 207.56 149.87 207.46 150.37 203.97 149.68"/><polygon class="cls-1" points="3.96 113.6 4.05 113.1 7.56 113.67 7.48 114.17 3.96 113.6"/><polygon class="cls-1" points="204.59 146.26 204.67 145.75 208.18 146.32 208.1 146.83 204.59 146.26"/><polygon class="cls-1" points="3.46 117.17 3.52 116.66 7.05 117.11 6.99 117.62 3.46 117.17"/><polygon class="cls-1" points="205.09 142.81 205.16 142.31 208.69 142.76 208.62 143.26 205.09 142.81"/><polygon class="cls-1" points="2.83 124.35 2.86 123.84 6.41 124.04 6.38 124.55 2.83 124.35"/><polygon class="cls-1" points="205.74 135.89 205.76 135.38 209.32 135.58 209.29 136.09 205.74 135.89"/><polygon class="cls-1" points="2.7 127.95 2.71 127.44 6.27 127.52 6.26 128.03 2.7 127.95"/><polygon class="cls-1" points="205.88 132.41 205.89 131.9 209.44 131.98 209.43 132.49 205.88 132.41"/><polygon class="cls-1" points="2.7 131.55 2.69 131.04 6.25 130.99 6.26 131.5 2.7 131.55"/><polygon class="cls-1" points="205.9 128.93 205.89 128.42 209.44 128.38 209.45 128.89 205.9 128.93"/><polygon class="cls-1" points="2.83 135.15 2.8 134.64 6.36 134.47 6.38 134.98 2.83 135.15"/><polygon class="cls-1" points="205.79 125.45 205.77 124.94 209.32 124.77 209.34 125.28 205.79 125.45"/><polygon class="cls-1" points="3.45 142.33 3.39 141.82 6.93 141.41 6.99 141.91 3.45 142.33"/><polygon class="cls-1" points="205.22 118.52 205.16 118.01 208.69 117.59 208.75 118.1 205.22 118.52"/><polygon class="cls-1" points="3.96 145.9 3.88 145.4 7.39 144.86 7.47 145.36 3.96 145.9"/><polygon class="cls-1" points="204.75 115.07 204.67 114.56 208.19 114.03 208.27 114.53 204.75 115.07"/><polygon class="cls-1" points="4.58 149.45 4.49 148.95 7.98 148.29 8.08 148.79 4.58 149.45"/><polygon class="cls-1" points="204.17 111.64 204.07 111.14 207.57 110.47 207.66 110.98 204.17 111.64"/><polygon class="cls-1" points="5.33 152.98 5.22 152.48 8.69 151.69 8.8 152.19 5.33 152.98"/><polygon class="cls-1" points="203.46 108.23 203.35 107.73 206.81 106.95 206.93 107.45 203.46 108.23"/><polygon class="cls-1" points="7.2 159.94 7.05 159.45 10.45 158.43 10.6 158.92 7.2 159.94"/><polygon class="cls-1" points="201.69 101.5 201.54 101.01 204.95 99.98 205.1 100.47 201.69 101.5"/><polygon class="cls-1" points="8.31 163.37 8.15 162.88 11.51 161.75 11.68 162.23 8.31 163.37"/><polygon class="cls-1" points="200.63 98.18 200.47 97.7 203.84 96.56 204 97.04 200.63 98.18"/><polygon class="cls-1" points="9.54 166.76 9.36 166.28 12.69 165.02 12.87 165.5 9.54 166.76"/><polygon class="cls-1" points="199.46 94.9 199.28 94.43 202.6 93.17 202.78 93.64 199.46 94.9"/><polygon class="cls-1" points="10.9 170.1 10.7 169.63 13.98 168.26 14.17 168.73 10.9 170.1"/><polygon class="cls-1" points="198.17 91.67 197.97 91.2 201.25 89.82 201.45 90.3 198.17 91.67"/><polygon class="cls-1" points="13.94 176.64 13.71 176.18 16.89 174.58 17.12 175.04 13.94 176.64"/><polygon class="cls-1" points="195.26 85.34 195.03 84.89 198.2 83.29 198.44 83.74 195.26 85.34"/><polygon class="cls-1" points="15.64 179.82 15.39 179.38 18.51 177.67 18.75 178.12 15.64 179.82"/><polygon class="cls-1" points="193.64 82.26 193.39 81.81 196.51 80.1 196.76 80.55 193.64 82.26"/><polygon class="cls-1" points="17.44 182.95 17.18 182.51 20.23 180.69 20.5 181.13 17.44 182.95"/><polygon class="cls-1" points="191.91 79.23 191.65 78.79 194.71 76.98 194.97 77.42 191.91 79.23"/><polygon class="cls-1" points="19.35 186.01 19.07 185.58 22.06 183.66 22.34 184.09 19.35 186.01"/><polygon class="cls-1" points="190.08 76.27 189.81 75.84 192.79 73.92 193.07 74.35 190.08 76.27"/><polygon class="cls-1" points="23.49 191.92 23.18 191.51 26.03 189.38 26.34 189.79 23.49 191.92"/><polygon class="cls-1" points="186.12 70.54 185.81 70.13 188.66 68.01 188.96 68.42 186.12 70.54"/><polygon class="cls-1" points="25.71 194.76 25.39 194.36 28.16 192.14 28.48 192.54 25.71 194.76"/><polygon class="cls-1" points="183.99 67.78 183.66 67.39 186.44 65.16 186.76 65.56 183.99 67.78"/><polygon class="cls-1" points="28.03 197.53 27.7 197.14 30.39 194.82 30.72 195.21 28.03 197.53"/><polygon class="cls-1" points="181.76 65.1 181.43 64.72 184.12 62.4 184.45 62.78 181.76 65.1"/><polygon class="cls-1" points="30.44 200.21 30.09 199.83 32.7 197.42 33.05 197.8 30.44 200.21"/><polygon class="cls-1" points="179.44 62.5 179.09 62.13 181.7 59.72 182.05 60.09 179.44 62.5"/><polygon class="cls-1" points="35.54 205.31 35.17 204.97 37.6 202.38 37.98 202.73 35.54 205.31"/><polygon class="cls-1" points="174.54 57.55 174.17 57.2 176.6 54.61 176.98 54.96 174.54 57.55"/><polygon class="cls-1" points="38.23 207.73 37.84 207.4 40.18 204.72 40.57 205.06 38.23 207.73"/><polygon class="cls-1" points="171.96 55.2 171.58 54.86 173.92 52.19 174.31 52.53 171.96 55.2"/><polygon class="cls-1" points="40.99 210.05 40.59 209.73 42.84 206.98 43.24 207.3 40.99 210.05"/><polygon class="cls-1" points="169.31 52.95 168.91 52.62 171.16 49.87 171.56 50.19 169.31 52.95"/><rect class="cls-1" x="42.93" y="210.45" width="3.55" height="0.51" transform="translate(-150.17 118.94) rotate(-52.8)"/><polygon class="cls-1" points="166.57 50.78 166.16 50.47 168.31 47.65 168.72 47.96 166.57 50.78"/><rect class="cls-1" x="48.73" y="214.54" width="3.55" height="0.51" transform="translate(-156.89 139.46) rotate(-56.81)"/><rect class="cls-1" x="159.87" y="44.87" width="3.55" height="0.51" transform="translate(35.39 155.69) rotate(-56.81)"/><rect class="cls-1" x="51.73" y="216.43" width="3.55" height="0.51" transform="translate(-159.57 150.25) rotate(-58.81)"/><rect class="cls-1" x="156.87" y="42.98" width="3.55" height="0.51" transform="translate(39.5 156.56) rotate(-58.81)"/><rect class="cls-1" x="54.8" y="218.22" width="3.55" height="0.51" transform="translate(-161.75 161.31) rotate(-60.81)"/><rect class="cls-1" x="153.8" y="41.2" width="3.55" height="0.51" transform="translate(43.51 157.05) rotate(-60.81)"/><rect class="cls-1" x="57.92" y="219.89" width="3.55" height="0.51" transform="translate(-163.39 172.61) rotate(-62.8)"/><rect class="cls-1" x="150.67" y="39.52" width="3.55" height="0.51" transform="translate(47.33 157.13) rotate(-62.77)"/><path class="cls-1" d="M145.89,24,156.75.91,160,2.44l1.91,15.16a71.57,71.57,0,0,1,.63,9.45h.08c1.18-3.21,2.43-6.05,4.12-9.64l4.54-9.65,2.82,1.32L163.25,32.15l-3-1.43L158.4,15.56a79.43,79.43,0,0,1-.7-9.73h-.12c-1.2,3-2.43,5.79-4.24,9.62L148.7,25.3Z"/><path class="cls-1" d="M163.58,33.05l-4-1.87-1.88-15.53c-.32-2.63-.52-4.87-.63-6.86-.88,2.08-1.86,4.25-3.13,6.94L149,26.21,145,24.3,156.42,0l4.22,2,2,15.53c.28,2.22.47,4.29.56,6.27.9-2.2,1.87-4.33,3-6.68L171,6.85,175,8.75Zm-2.72-2.78,2.06,1L173.2,9.41l-1.58-.75-4.25,9c-1.58,3.36-2.89,6.28-4.1,9.58l-.16.44-1.25,0V27a72.31,72.31,0,0,0-.61-9.36L159.38,2.9l-2.3-1.08L146.8,23.65l1.58.74,4.34-9.24c1.82-3.85,3-6.63,4.23-9.59l.19-.48,1.25.14v.61a80.74,80.74,0,0,0,.7,9.65Z"/><path class="cls-2" d="M101.25,126.52a5.44,5.44,0,1,0,7.23-2.59A5.44,5.44,0,0,0,101.25,126.52Z"/><polygon class="cls-1" points="146.26 43.69 102.57 113.35 111.64 117.24 146.26 43.69"/><polygon class="cls-1" points="146.26 43.69 111.64 117.24 120.62 121.09 146.26 43.69 146.26 43.69"/><line class="cls-2" x1="122.06" y1="124.28" x2="122.01" y2="124.35"/></g><g id="Layer_1" data-name="Layer 1"><text class="cls-3" transform="translate(223.89 207.73)">Cloju<tspan class="cls-4" x="229.09" y="0">r</tspan><tspan class="cls-5" x="260.2" y="0">e</tspan><tspan class="cls-6" x="313.95" y="0">/north</tspan></text><path class="cls-7" d="M167.84,174.75h4.22q0,18.51-6,26.95T151,210.14q-7.38,0-14.18-5.57T124.6,174.75l-10.08-45.47L79.59,208.5H57.44l50.16-108q-4-21-9.61-31.06T84.05,59.31a15.78,15.78,0,0,0-11.66,5.1q-5,5.1-5.57,15.76H62.6Q63,63,69.52,52.57T85.92,42.2q6.33,0,12,5.22t9.85,17.81q4.16,12.6,13,52.21l8.32,37.15q5,23.08,10.61,30.88t13.3,7.79q13.13,0,14.88-18.51Z"/></g></svg>